<svg width="20" height="20" viewBox="0 0 32 32" xmlns="http://www.w3.org/2000/svg">
  <path d="m28.926 1.17-2.182 3.608c-1.876-.608-4.669-.489-6.426 0l-2.102-3.557c-3.452 6.448-2.475 10.523.159 12.549a26 26 0 0 0-1.247.833C6.149 5.844-3.735 15.709 2.749 24.523h.05c1.163 1.687 2.503 2.731 3.95 3.277 2.05.773 4.159.551 6.236.257s4.109-.663 6.046-.525 3.874.635 5.647 2.569c1.209 1.318 2.926-.101 1.486-1.507-2.185-2.134-4.525-2.959-6.825-3.122s-4.505.293-6.502.576-3.761.409-5.276-.163a5.7 5.7 0 0 1-2.07-1.36h22.51c1.064-3.756 1.177-7.73-.033-10.237 3.635-1.897 5.097-6.376.958-13.116zm-6.75 9.702c-2.316 1.117-3.367.212-3.817-1.656 2.273-1.41 3.626-.278 3.817 1.656m2.891 0c.191-1.934 1.544-3.067 3.817-1.656-.45 1.868-1.502 2.774-3.817 1.656"/>
</svg>
